<?xml version="1.0" standalone="no"?>
<!DOCTYPE svg PUBLIC "-//W3C//DTD SVG 20010904//EN"
 "http://www.w3.org/TR/2001/REC-SVG-20010904/DTD/svg10.dtd">
<svg version="1.0" xmlns="http://www.w3.org/2000/svg"
 width="1680.000000pt" height="1680.000000pt" viewBox="0 0 1680.000000 1680.000000"
 preserveAspectRatio="xMidYMid meet">
<metadata>
Created by potrace 1.14, written by Peter Selinger 2001-2017
</metadata>
<g transform="translate(0.000000,1680.000000) scale(0.100000,-0.100000)"
fill="#000000" stroke="none">
<path d="M14008 12624 c-3 -2 -34 -7 -69 -10 -109 -9 -197 -21 -252 -35 -20
-6 -42 -7 -47 -4 -6 3 -10 2 -10 -2 0 -5 -8 -9 -18 -10 -44 -3 -316 -83 -347
-102 -5 -3 -12 -6 -15 -6 -22 -1 -232 -101 -345 -165 -50 -28 -203 -133 -230
-157 -11 -10 -38 -31 -60 -48 -41 -30 -241 -227 -285 -280 -77 -92 -190 -250
-190 -264 0 -4 -8 -16 -18 -27 -47 -52 -212 -410 -242 -524 -5 -19 -20 -77
-34 -128 -14 -51 -28 -112 -31 -135 -3 -23 -8 -55 -11 -72 -17 -97 -21 -179
-19 -340 2 -99 5 -193 8 -210 3 -16 8 -52 11 -80 3 -27 10 -72 16 -100 5 -27
12 -62 14 -76 11 -69 76 -282 89 -295 4 -4 7 -13 7 -20 0 -8 14 -43 30 -79 17
-36 30 -68 30 -71 0 -3 9 -18 20 -34 11 -15 17 -30 13 -34 -3 -3 -1 -6 5 -6 7
0 12 -6 12 -13 0 -7 16 -36 35 -64 19 -29 35 -57 35 -62 0 -5 3 -11 8 -13 4
-1 30 -34 57 -73 27 -38 58 -79 70 -90 11 -11 28 -31 37 -44 37 -52 242 -252
321 -311 10 -8 27 -22 36 -30 9 -8 33 -26 54 -40 20 -14 37 -28 37 -32 0 -5 6
-8 14 -8 8 0 16 -4 18 -8 7 -19 405 -272 427 -272 6 0 14 -7 19 -16 5 -9 11
-14 13 -13 2 2 43 -18 91 -44 48 -26 91 -47 95 -47 5 0 19 -9 33 -20 14 -11
33 -20 42 -20 9 0 18 -3 20 -7 3 -8 124 -69 298 -151 201 -95 298 -140 335
-157 124 -56 476 -232 570 -285 154 -88 238 -145 350 -237 160 -132 258 -265
321 -438 10 -28 15 -45 29 -107 18 -77 24 -242 12 -343 -15 -125 -68 -283
-121 -360 -92 -134 -150 -195 -265 -279 -96 -70 -319 -173 -414 -190 -12 -3
-22 -5 -22 -6 0 -4 -132 -30 -180 -36 -166 -20 -374 -19 -475 1 -14 3 -41 8
-60 11 -46 8 -65 12 -65 14 0 1 -11 4 -25 6 -67 12 -352 130 -370 153 -3 3
-21 15 -40 25 -116 64 -326 254 -433 391 -26 33 -52 66 -57 72 -6 7 -20 28
-31 48 -12 19 -24 35 -28 35 -4 0 -12 12 -18 27 -7 16 -24 48 -38 72 -52 86
-98 184 -136 287 -12 33 -26 70 -32 84 -6 14 -11 28 -11 32 -2 16 -15 18 -40
7 -14 -7 -26 -16 -26 -21 0 -4 -5 -8 -10 -8 -6 0 -85 -45 -176 -100 -91 -55
-169 -100 -174 -100 -6 0 -10 -4 -10 -9 0 -5 -6 -11 -12 -13 -20 -5 -263 -151
-266 -160 -2 -4 -12 -8 -22 -8 -11 0 -24 -8 -29 -17 -6 -10 -11 -15 -11 -11 0
7 -57 -27 -85 -50 -5 -4 -25 -15 -42 -22 -18 -8 -33 -18 -33 -22 0 -5 -4 -8
-9 -8 -12 0 -194 -111 -203 -124 -4 -6 -3 -15 1 -21 4 -5 14 -26 21 -45 23
-61 78 -189 90 -210 5 -8 19 -35 32 -60 12 -25 44 -80 70 -123 26 -43 48 -82
48 -87 0 -5 3 -10 8 -12 8 -3 52 -64 52 -72 0 -3 6 -14 14 -23 8 -10 38 -49
67 -88 29 -38 55 -72 59 -75 3 -3 13 -16 22 -29 46 -66 248 -276 357 -371 35
-30 69 -59 75 -65 6 -5 34 -27 61 -47 28 -21 56 -43 64 -50 8 -6 57 -40 110
-75 53 -34 101 -66 107 -70 75 -55 484 -239 576 -258 18 -4 39 -12 47 -19 8
-6 16 -10 18 -8 1 1 4 2 6 1 1 0 11 -2 22 -4 21 -3 110 -24 135 -33 8 -2 25
-6 38 -8 12 -1 46 -7 75 -13 68 -13 114 -21 157 -26 19 -2 62 -7 95 -11 33 -4
170 -8 305 -8 219 -1 282 2 410 20 19 2 53 6 75 9 22 3 63 10 90 15 28 5 66
12 85 15 19 3 71 15 115 26 44 12 87 22 95 24 8 2 69 22 135 45 66 23 125 42
131 44 7 1 19 8 28 15 9 7 16 11 16 7 0 -3 27 7 60 24 33 16 66 30 74 30 8 0
16 3 18 8 2 4 41 27 88 51 83 43 315 192 355 228 11 10 47 41 80 68 118 99
261 254 350 381 27 38 55 75 62 82 7 7 13 19 13 27 0 7 4 15 8 17 4 2 24 32
44 68 19 36 46 85 60 110 14 25 25 47 25 50 0 3 12 31 26 62 15 32 29 70 33
85 4 16 10 33 14 38 25 33 111 394 102 428 -1 4 1 7 5 7 18 0 25 491 10 625
-5 39 -10 81 -11 95 -4 29 -17 106 -23 135 -2 11 -6 31 -9 45 -11 53 -51 206
-61 230 -3 8 -7 20 -9 25 -1 6 -16 44 -33 87 -17 42 -31 81 -31 86 0 6 -3 12
-7 14 -5 2 -25 37 -46 78 -49 97 -70 134 -79 138 -5 2 -8 9 -8 16 0 6 -13 27
-30 46 -16 19 -29 40 -30 47 0 7 -6 16 -13 20 -6 4 -31 33 -53 63 -44 59 -220
241 -295 305 -56 48 -70 59 -129 105 -25 19 -47 37 -50 40 -3 3 -12 10 -21 15
-23 14 -202 133 -214 143 -19 14 -161 97 -285 165 -62 34 -404 205 -465 232
-22 10 -86 40 -143 67 -56 26 -108 49 -115 51 -6 1 -14 5 -17 8 -3 4 -36 20
-75 37 -85 36 -244 110 -265 123 -8 5 -28 15 -45 22 -98 45 -186 90 -191 98
-3 5 -14 9 -24 9 -10 0 -20 3 -22 8 -1 4 -37 25 -78 46 -41 22 -99 54 -128 73
-29 18 -55 33 -58 33 -8 0 -69 44 -72 53 -2 4 -8 7 -13 7 -29 0 -245 186 -310
267 -50 63 -106 154 -107 177 0 5 -5 12 -10 15 -9 6 -50 120 -57 164 -25 136
-25 274 -1 386 9 40 19 78 23 85 4 6 8 17 10 25 5 33 80 171 129 236 51 68
201 215 219 215 3 0 18 8 33 19 38 26 86 55 92 56 3 1 23 9 45 19 200 88 439
126 655 102 30 -3 77 -9 104 -12 27 -3 53 -7 57 -10 5 -3 21 -7 36 -9 53 -7
228 -68 321 -112 188 -89 358 -210 516 -369 116 -115 149 -156 224 -268 30
-45 63 -90 74 -101 19 -20 19 -20 38 3 10 12 21 22 24 22 5 0 31 19 60 45 6 6
34 28 61 50 28 21 55 44 60 50 6 6 30 26 55 45 25 19 47 37 50 40 3 3 37 30
75 60 39 30 72 58 73 62 2 5 10 8 18 8 9 0 12 5 9 10 -3 6 0 10 9 10 8 0 16 4
18 8 2 4 98 84 213 176 116 93 215 175 221 183 6 7 14 13 18 13 4 0 13 5 20
12 26 25 -188 316 -365 496 -92 94 -214 204 -279 253 -19 15 -46 36 -59 48
-13 11 -28 21 -32 21 -4 0 -15 7 -23 16 -43 42 -237 164 -386 240 -98 51 -153
76 -295 134 -11 5 -56 21 -100 35 -44 15 -87 29 -95 32 -8 3 -19 7 -25 8 -5 2
-39 11 -75 20 -109 29 -289 64 -355 70 -22 2 -40 4 -40 5 0 9 -568 23 -577 14z"/>
<path d="M4 12541 c-2 -2 -4 -1856 -4 -4120 l0 -4116 678 0 677 0 1 21 c1 12
4 26 8 33 4 6 3 11 -3 11 -6 0 -6 11 -1 30 5 17 5 30 2 30 -8 0 -7 123 1 137
2 4 1 17 -3 28 -4 11 -4 30 1 42 5 13 5 23 1 23 -9 0 -9 61 1 76 3 6 3 14 0
18 -11 10 -9 110 1 118 6 4 6 12 0 20 -5 7 -8 45 -7 83 4 92 4 83 2 141 -1 28
1 56 5 62 4 7 3 12 -1 12 -10 0 -9 72 1 88 3 6 3 13 -1 15 -5 3 -7 49 -5 104
1 54 2 104 2 111 0 6 0 27 -1 45 -1 17 -1 46 0 62 1 24 2 161 1 210 0 6 -1 24
-3 40 -1 17 1 38 5 47 5 9 5 19 1 21 -5 3 -7 49 -5 104 1 54 2 104 2 111 0 6
0 27 -1 45 -1 17 -1 46 0 62 1 25 2 175 1 210 0 6 -1 33 -3 60 -1 28 1 58 6
68 4 10 4 17 -2 17 -6 0 -6 11 -1 30 5 17 5 30 2 30 -8 0 -7 123 1 137 2 4 1
17 -3 28 -4 11 -4 30 1 43 5 12 5 22 1 22 -9 0 -9 61 1 76 3 6 3 14 0 18 -10
10 -9 110 1 117 5 4 5 13 0 20 -10 16 -12 116 -3 144 3 11 3 29 -1 40 -4 11
-4 30 1 43 5 12 5 22 1 22 -9 0 -9 61 1 76 3 6 3 14 0 18 -11 10 -9 110 1 118
6 4 6 12 0 20 -11 15 -12 68 -1 85 4 6 4 14 -1 17 -8 5 -8 89 1 103 3 5 2 15
-3 23 -5 8 -5 22 1 32 6 12 6 18 0 18 -6 0 -6 11 -1 30 5 17 5 30 2 30 -8 0
-7 123 1 137 2 4 1 17 -3 28 -4 11 -4 30 1 43 5 12 5 22 1 22 -9 0 -9 61 1 76
3 6 3 14 0 18 -11 10 -9 110 1 118 6 4 6 12 0 20 -5 7 -8 45 -7 83 4 92 4 83
2 141 -1 28 1 56 5 62 4 7 3 12 -1 12 -10 0 -9 113 1 129 4 6 3 11 -3 11 -6 0
-6 11 -1 30 5 17 5 30 2 30 -8 0 -7 128 1 137 3 3 2 15 -3 27 -4 12 -4 29 1
38 5 9 6 19 2 21 -5 3 -7 49 -5 104 1 54 2 104 2 111 0 6 0 27 -1 45 -1 17 -1
46 0 62 2 51 2 201 0 258 -1 17 -1 46 0 62 1 17 0 50 -2 75 -1 25 1 57 5 73 3
15 4 27 0 27 -5 0 -8 100 -3 118 1 5 31 -26 31 -32 0 -5 51 -81 111 -167 6 -9
27 -41 48 -71 20 -30 68 -102 106 -159 39 -57 72 -108 74 -113 2 -5 10 -16 17
-25 23 -28 204 -302 204 -308 0 -4 7 -13 16 -22 8 -9 100 -144 204 -301 104
-157 193 -289 197 -295 4 -5 71 -104 148 -220 77 -115 143 -211 148 -213 4 -2
7 -7 7 -12 0 -7 224 -347 247 -375 5 -5 20 -28 33 -50 13 -22 28 -41 32 -43 4
-2 8 -10 8 -17 0 -7 3 -15 8 -17 4 -1 31 -39 60 -83 28 -44 55 -84 59 -90 32
-41 293 -436 293 -444 0 -5 4 -11 8 -13 5 -1 105 -147 222 -323 118 -176 218
-321 222 -323 4 -2 8 -8 8 -12 0 -9 59 -101 70 -110 4 -3 9 -10 11 -16 4 -10
256 -389 272 -409 5 -5 16 -22 25 -37 9 -15 50 -74 90 -133 39 -59 72 -110 72
-115 0 -5 3 -10 8 -12 9 -4 87 -118 95 -140 3 -10 11 -18 17 -18 5 0 10 -4 10
-10 0 -11 102 -164 113 -168 4 -2 7 -8 7 -14 0 -10 54 -91 77 -115 6 -7 15
-22 18 -33 3 -11 10 -20 15 -20 5 0 10 -6 12 -12 4 -18 309 -472 320 -476 4
-2 8 -8 8 -13 0 -5 27 -49 60 -97 l59 -87 646 0 c355 0 645 2 646 5 4 28 1
8219 -3 8226 -4 6 -273 9 -680 9 l-673 0 0 -2883 c0 -1585 -2 -2882 -5 -2882
-5 0 -192 276 -199 294 -2 6 -9 16 -15 23 -26 29 -36 42 -36 47 0 3 -27 45
-60 93 -33 48 -64 95 -70 103 -5 8 -28 41 -50 73 -22 32 -40 60 -40 63 0 3
-18 29 -40 59 -22 30 -40 59 -40 65 0 5 -4 10 -10 10 -5 0 -10 7 -10 15 0 8
-4 15 -10 15 -5 0 -10 7 -10 15 0 8 -4 15 -10 15 -5 0 -10 7 -10 15 0 8 -4 15
-10 15 -5 0 -10 6 -10 14 0 8 -3 16 -8 18 -4 2 -31 39 -59 83 -29 44 -62 91
-73 105 -11 14 -20 30 -20 37 0 6 -3 13 -8 15 -4 2 -20 23 -37 48 -16 25 -33
47 -36 50 -3 3 -12 17 -20 31 -14 26 -90 140 -99 149 -10 10 -60 90 -60 96 0
4 -9 15 -21 25 -11 9 -19 19 -18 21 2 3 -83 132 -335 507 -42 62 -76 117 -76
121 0 4 -7 10 -15 14 -8 3 -15 10 -15 16 0 11 -57 100 -70 110 -4 3 -9 10 -11
16 -7 18 -184 279 -191 282 -5 2 -8 10 -8 18 0 8 -4 14 -10 14 -5 0 -10 6 -10
13 0 6 -11 25 -25 41 -13 16 -27 37 -30 47 -4 11 -11 19 -16 19 -5 0 -9 5 -9
11 0 6 -13 28 -30 49 -16 21 -30 42 -30 47 0 6 -9 18 -20 28 -11 10 -20 24
-20 32 0 7 -4 13 -10 13 -5 0 -10 7 -10 15 0 8 -4 15 -10 15 -5 0 -10 5 -10
11 0 6 -6 17 -12 24 -27 30 -38 44 -38 50 0 3 -29 48 -65 100 -36 53 -65 100
-65 104 0 5 -3 11 -8 13 -7 3 -230 333 -555 823 -70 105 -130 195 -134 200 -5
6 -35 51 -68 100 -32 50 -68 100 -79 113 -11 12 -15 22 -10 22 5 0 4 4 -2 8
-6 4 -23 27 -39 51 -15 25 -31 49 -36 55 -5 6 -42 61 -82 121 -39 61 -74 112
-77 115 -3 3 -52 77 -110 164 -58 88 -111 165 -118 173 -7 7 -10 13 -6 13 4 0
0 8 -8 18 -29 32 -88 122 -88 132 0 5 -4 10 -10 10 -5 0 -10 4 -10 10 0 5 -7
18 -15 27 -8 10 -52 74 -98 143 l-83 125 -643 0 c-353 0 -644 -2 -647 -4z"/>
<path d="M8387 9438 c-9 -5 -12 -227 -12 -833 l0 -825 833 0 832 0 0 98 c3
697 0 1556 -5 1560 -8 9 -1635 8 -1648 0z"/>
</g>
</svg>
