<svg xmlns="http://www.w3.org/2000/svg" id="Layer_2" data-name="Layer 2" viewBox="0 0 822.19 154.54"><defs><style>.cls-1{fill:#282828;stroke-width:0}</style></defs><g id="Layer_1-2" data-name="Layer 1"><path d="m18.57 2.56 80.04 119.53V2.56h17.93v149.42H97.97L17.93 32.45v119.53H0V2.56h18.57Zm218.77 0h17.93v109.5c0 24.97-16.44 42.48-43.97 42.48-40.94 0-40.94-41.12-40.94-41.12l17.21.07s1.18 23.98 23.73 23.98c20.06 0 26.04-13.66 26.04-25.19V2.56Zm239.07 74.71c0 43.12-30.74 77.27-73.85 77.27s-73.86-34.15-73.86-77.27S359.44 0 402.56 0s73.85 34.15 73.85 77.27Zm-19.21 0c0-31.8-21.99-60.19-54.64-60.19s-54.64 28.39-54.64 60.19 21.99 60.19 54.64 60.19 54.64-28.39 54.64-60.19Zm87.51-74.71h38.85c29.67 0 49.95 17.5 49.95 44.18 0 35.43-32.23 42.05-36.5 42.69l41.41 62.54h-21.56l-40.34-61.05h-13.87v61.05h-17.93V2.56Zm70.86 44.19c0-16.44-10.89-27.11-30.95-27.11h-21.99v54.22h21.99c20.06 0 30.95-10.67 30.95-27.11Zm206.62 30.52c0 43.12-27.54 74.71-73.85 74.71h-42.9V2.56h42.9c46.32 0 73.85 31.59 73.85 74.71Zm-19.21 0c0-31.8-19.21-57.63-55.71-57.63h-23.91V134.9h23.91c36.5 0 55.71-25.83 55.71-57.63Z" class="cls-1"/><path d="M397.51 72.22h10.1v10.1h-10.1z" class="cls-1"/></g></svg>