<svg xmlns="http://www.w3.org/2000/svg" id="Layer_2" data-name="Layer 2" viewBox="0 0 1212.18 106.41"><defs><style>.cls-1{fill:#fff;stroke-width:0}</style></defs><g id="Layer_1-2" data-name="Layer 1"><path d="M64.55 73.93 16.96 2.84l-.78-1.16H0v103.05h16.98V32.49l47.6 71.07.77 1.17h16.18V1.68H64.55v72.25zm93.06 2.19c0 4.17-1.41 13.87-14.43 13.87-12.11 0-12.89-12.67-12.92-13.21l-.13-2.48-16.37-.06v2.63c0 .07.04 7.44 3.77 14.8 3.4 6.72 10.61 14.74 25.65 14.74 19.08 0 31.41-11.94 31.41-30.43V1.68h-16.98v74.44ZM266.14 0c-29.06 0-50.97 22.87-50.97 53.2s21.91 53.2 50.97 53.2 50.97-22.87 50.97-53.2S295.2 0 266.14 0Zm33.15 53.2c0 18.08-12.4 36.78-33.15 36.78s-33.15-18.7-33.15-36.78 12.4-36.78 33.15-36.78 33.15 18.7 33.15 36.78Zm120.65-19.98c0-18.87-14.19-31.54-35.32-31.54h-28.05v103.05h16.98V64.77h5.05l26.41 39.96h20.4l-27.74-41.89c7.17-2.18 22.27-9.22 22.27-29.62Zm-16.98 0c0 9.75-6.26 15.12-17.64 15.12h-11.77V18.09h11.77c11.37 0 17.64 5.37 17.64 15.12Zm90.65-31.54H462.9v103.05h30.71c30.49 0 50.97-20.71 50.97-51.52S524.09 1.68 493.61 1.68Zm33.15 51.52c0 21.33-13.29 35.1-33.85 35.1h-13.03V18.1h13.03c20.56 0 33.85 13.78 33.85 35.1Zm130.2-6.93c-12.98-5.95-20.14-9.23-20.14-17.48 0-5.73 4.83-11.82 13.77-11.82 10.43 0 16.66 8.9 16.72 8.98l1.6 2.37 12.82-10.37-1.3-1.98C680.02 15.34 670.09.62 650.6.62c-21.16 0-30.67 16.48-30.67 28.18 0 17.57 12.22 24.6 28.19 31.96 11.09 5.12 17.36 8.41 17.36 16.65 0 8.69-8.07 12.65-15.57 12.65-13.42 0-18.59-12.79-18.81-13.33l-1.13-2.89-14.28 8.57.81 2.07c.09.22 8.94 21.94 33.41 21.94 18.98 0 32.76-12.2 32.76-29.01 0-17.91-11.64-24.69-25.69-31.13Zm60.17-27.63h27.91v86.1h16.91v-86.1h27.91V2.29h-72.73v16.35zm167.76 46.4c0 20.67-11.49 25.01-21.13 25.01s-21.13-4.34-21.13-25.01V2.29h-16.91V66.3c0 24.37 14.93 40.12 38.03 40.12s38.03-15.75 38.03-40.12V2.29h-16.91v62.75Zm89.97-62.75h-30.54v102.45h30.54c30.31 0 50.67-20.59 50.67-51.23s-20.36-51.23-50.67-51.23Zm32.93 51.23c0 21.19-13.2 34.87-33.63 34.87h-12.93V18.64h12.93c20.43 0 33.63 13.69 33.63 34.88Zm53.33-51.23h16.91v102.45h-16.91zM1161.51.62c-28.89 0-50.67 22.74-50.67 52.9s21.78 52.89 50.67 52.89 50.67-22.74 50.67-52.89S1190.4.62 1161.51.62Zm32.93 52.9c0 17.96-12.32 36.54-32.93 36.54s-32.93-18.58-32.93-36.54 12.32-36.54 32.93-36.54 32.93 18.58 32.93 36.54Z" class="cls-1"/><path d="M258.27 45h15.75v15.74h-15.75zm896.37 0h15.75v15.74h-15.75z" class="cls-1"/></g></svg>