<svg xmlns="http://www.w3.org/2000/svg" id="Layer_2" data-name="Layer 2" viewBox="0 0 1213.18 107.41"><defs><style>.cls-1{fill:#282828;stroke-width:0}</style></defs><g id="Layer_1-2" data-name="Layer 1"><path d="M64.55 72.78 17.87 3.07l-.92-1.39H0v104.05h17.98v-71.1l46.68 69.71.93 1.39h16.94V1.68H64.55v71.1zm93.06 3.84c0 4.02-1.36 13.37-13.93 13.37-4.83 0-8.36-2.03-10.5-6.03-1.73-3.24-1.92-6.56-1.92-6.7l-.15-2.95-17.35-.07v3.13c0 .07.04 7.56 3.83 15.03 3.47 6.85 10.81 15.01 26.09 15.01 19.38 0 31.91-12.14 31.91-30.93V1.68h-17.98v74.94ZM266.64 0c-29.34 0-51.47 23.09-51.47 53.7s22.13 53.7 51.47 53.7 51.47-23.09 51.47-53.7S295.98 0 266.64 0Zm32.65 53.7c0 17.83-12.21 36.28-32.65 36.28s-32.65-18.45-32.65-36.28 12.21-36.28 32.65-36.28 32.65 18.45 32.65 36.28Zm121.65-19.98c0-19.17-14.39-32.04-35.82-32.04h-28.55v104.05h17.98V65.77h4.28l26.41 39.96h21.6l-27.88-42.11c7.5-2.43 21.98-9.75 21.98-29.89Zm-17.98 0c0 9.43-6.09 14.62-17.14 14.62h-11.27V19.09h11.27c11.05 0 17.14 5.19 17.14 14.62Zm91.15-32.04H462.9v104.05h31.21c30.78 0 51.47-20.91 51.47-52.02S524.89 1.68 494.11 1.68Zm32.65 52.02c0 21.02-13.09 34.6-33.35 34.6h-12.53V19.1h12.53c20.26 0 33.35 13.58 33.35 34.61Zm130.9-7.38c-13.76-6.31-19.84-9.42-19.84-17.02 0-5.49 4.65-11.32 13.27-11.32 10.15 0 16.25 8.68 16.3 8.76l1.9 2.82 13.59-11-1.55-2.36c-.42-.64-10.49-15.57-30.24-15.57-21.5 0-31.17 16.77-31.17 28.68 0 17.84 12.9 25.23 28.48 32.41 11.87 5.48 17.07 8.66 17.07 16.19 0 8.35-7.81 12.15-15.07 12.15-13.09 0-18.13-12.48-18.34-13.02l-1.35-3.44-15.15 9.09.96 2.46c.09.22 9.05 22.26 33.88 22.26 19.27 0 33.26-12.41 33.26-29.51 0-18.2-11.77-25.07-25.99-31.58Zm59.47-26.68h27.91v86.1h17.91v-86.1h27.91V2.29h-73.73v17.35zm167.76 45.9c0 20.26-11.22 24.51-20.63 24.51s-20.63-4.25-20.63-24.51V2.29h-17.91V66.8c0 24.67 15.13 40.62 38.53 40.62s38.53-15.94 38.53-40.62V2.29h-17.91v63.25Zm90.47-63.25h-31.04v103.45h31.04c30.61 0 51.17-20.79 51.17-51.72s-20.56-51.73-51.17-51.73Zm32.43 51.73c0 20.88-13 34.37-33.13 34.37h-12.43V19.64h12.43c20.12 0 33.13 13.49 33.13 34.38Zm53.33-51.73h17.91v103.45h-17.91zM1162.01.62c-29.17 0-51.17 22.96-51.17 53.4s22 53.39 51.17 53.39 51.17-22.95 51.17-53.39-22-53.4-51.17-53.4Zm32.43 53.4c0 17.71-12.13 36.04-32.43 36.04s-32.43-18.32-32.43-36.04 12.13-36.04 32.43-36.04 32.43 18.33 32.43 36.04Z" class="cls-1"/><path d="M258.27 45h16.75v16.74h-16.75zm895.74 0h16.75v16.74h-16.75z" class="cls-1"/></g></svg>