<svg xmlns="http://www.w3.org/2000/svg" data-name="Layer 2" viewBox="0 0 211.01 106.79"><path d="M64.55 72.16 17.87 2.45l-.92-1.39H0v104.05h17.98v-71.1l46.68 69.71.93 1.39h16.94V1.06H64.55v71.1zM185.03 45.7c-13.76-6.31-19.84-9.42-19.84-17.02 0-5.49 4.65-11.32 13.27-11.32 10.15 0 16.24 8.68 16.3 8.76l1.91 2.82 13.59-11-1.55-2.36C208.29 14.94 198.23 0 178.47 0c-21.5 0-31.17 16.77-31.17 28.68 0 17.84 12.9 25.23 28.48 32.41 11.87 5.48 17.07 8.66 17.07 16.19 0 8.35-7.81 12.15-15.07 12.15-13.09 0-18.13-12.48-18.34-13.02l-1.35-3.44-15.14 9.09.96 2.46c.09.22 9.08 22.25 33.87 22.25 19.27 0 33.26-12.41 33.26-29.51 0-18.2-11.77-25.07-25.99-31.58Zm-80.32-5.85h21.8v21.8h-21.8z" data-name="Layer 1" style="fill:#282828;stroke-width:0"/></svg>