<svg xmlns="http://www.w3.org/2000/svg" data-name="Layer 2" viewBox="0 0 210.01 105.79"><path d="M64.55 73.31 16.96 2.23l-.78-1.17H0v103.05h16.98V31.87l47.6 71.07.77 1.17h16.18V1.06H64.55v72.25zm119.77-27.66c-12.98-5.95-20.14-9.23-20.14-17.48 0-5.73 4.83-11.82 13.77-11.82 10.42 0 16.66 8.9 16.72 8.98l1.6 2.37 12.81-10.37-1.3-1.98C207.37 14.72 197.45 0 177.95 0c-21.16 0-30.67 16.48-30.67 28.18 0 17.57 12.22 24.6 28.19 31.96 11.09 5.12 17.36 8.41 17.36 16.65 0 8.69-8.07 12.65-15.57 12.65-13.43 0-18.59-12.79-18.81-13.33l-1.13-2.89-14.28 8.57.81 2.06c.08.22 8.84 21.94 33.41 21.94 18.98 0 32.76-12.2 32.76-29.01 0-17.91-11.64-24.69-25.69-31.13Zm-79.61-5.8h20.8v20.8h-20.8z" data-name="Layer 1" style="fill:#fff;stroke-width:0"/></svg>